General
Complete name                    : Prince of Persia The Sands of Time 2010.avi
Format                           : AVI

File size                        : 1.37 GiB
Duration                         : 1h 55mn
Overall bit rate                 : 1 690 Kbps

Video
Format                           : MPEG-4 Visual
Codec ID/Hint                    : XviD
Duration                         : 1h 55mn
Bit rate                         : 1 234 Kbps
Width                            : 718 pixels
Height                           : 358 pixels
Display aspect ratio             : 2.006
Stream size                      : 1 023 MiB (73%)
Writing library                  : XviD 1.2.1 (UTC 2008-12-04)

Audio

Format                           : AC-3
Duration                         : 1h 55mn
Bit rate                         : 448 Kbps
Channel(s)                       : 6 channels
Channel positions                : Front: L C R, Side: L R, LFE
Sampling rate                    : 48.0 KHz
Stream size                      : 371 MiB (27%)


